<svg width="21" height="21" viewBox="0 0 21 21" fill="none" xmlns="http://www.w3.org/2000/svg">
<path d="M10.3457 0.509277C15.8707 0.509277 20.3457 5.09747 20.3457 10.7622C20.3452 12.9105 19.6876 15.0045 18.4655 16.7494C17.2434 18.4944 15.5184 19.8026 13.5332 20.4897C13.0332 20.5922 12.8457 20.2718 12.8457 20.0027C12.8457 19.6566 12.8582 18.5544 12.8582 17.1831C12.8582 16.2219 12.5457 15.6067 12.1832 15.2863C14.4082 15.03 16.7457 14.1585 16.7457 10.2239C16.7457 9.09611 16.3582 8.18616 15.7207 7.46846C15.8207 7.21214 16.1707 6.16121 15.6207 4.75143C15.6207 4.75143 14.7832 4.46947 12.8707 5.80236C12.0707 5.57167 11.2207 5.45632 10.3707 5.45632C9.5207 5.45632 8.6707 5.57167 7.8707 5.80236C5.9582 4.48229 5.1207 4.75143 5.1207 4.75143C4.5707 6.16121 4.9207 7.21214 5.0207 7.46846C4.3832 8.18616 3.9957 9.10893 3.9957 10.2239C3.9957 14.1457 6.3207 15.03 8.5457 15.2863C8.2582 15.5426 7.9957 15.9912 7.9082 16.6577C7.3332 16.9268 5.8957 17.3625 4.9957 15.8118C4.8082 15.5042 4.2457 14.748 3.4582 14.7609C2.6207 14.7737 3.1207 15.2479 3.4707 15.4401C3.8957 15.6836 4.3832 16.5936 4.4957 16.8883C4.6957 17.4651 5.3457 18.5673 7.8582 18.0931C7.8582 18.9518 7.8707 19.7592 7.8707 20.0027C7.8707 20.2718 7.6832 20.5794 7.1832 20.4897C5.1915 19.81 3.45912 18.5045 2.23182 16.7584C1.00451 15.0124 0.344603 12.9144 0.345705 10.7622C0.345705 5.09747 4.8207 0.509277 10.3457 0.509277Z" fill="#24292F"/>
</svg>
