<svg width="16" height="16" viewBox="0 0 16 16" fill="none" xmlns="http://www.w3.org/2000/svg">
<path d="M15.8416 6.43104H15.1977V6.39904H7.9988V9.59856H12.5181C11.8582 11.4623 10.0865 12.7981 7.9988 12.7981C5.3472 12.7981 3.19952 10.6504 3.19952 7.9988C3.19952 5.3472 5.3472 3.19952 7.9988 3.19952C9.22262 3.19952 10.3345 3.65945 11.1823 4.41534L13.446 2.15168C12.0182 0.819877 10.1065 0 7.9988 0C3.57946 0 0 3.57946 0 7.9988C0 12.4181 3.57946 15.9976 7.9988 15.9976C12.4181 15.9976 15.9976 12.4141 15.9976 7.9988C15.9976 7.46288 15.9416 6.93896 15.8416 6.43104Z" fill="#FAB409"/>
<path d="M0.925781 4.27536L3.55339 6.20307C4.26528 4.44333 5.98502 3.19952 8.00072 3.19952C9.22454 3.19952 10.3364 3.65945 11.1842 4.41534L13.4479 2.15168C12.0201 0.819877 10.1084 0 8.00072 0C4.92918 0 2.26558 1.73574 0.925781 4.27536Z" fill="#E73B2F"/>
<path d="M7.99784 16.0001C10.0655 16.0001 11.9412 15.2083 13.361 13.9245L10.8854 11.8288C10.0815 12.4367 9.08568 12.8006 7.99784 12.8006C5.91815 12.8006 4.15042 11.4728 3.48652 9.62109L0.878906 11.6328C2.20271 14.2244 4.89031 16.0001 7.99784 16.0001Z" fill="#2E9E49"/>
<path d="M15.8389 6.43043H15.195V6.39844H7.99609V9.59796H12.5154C12.1995 10.4938 11.6236 11.2657 10.8797 11.8256L13.3553 13.9213C13.1793 14.0813 15.9909 11.9976 15.9909 7.9982C15.9909 7.46228 15.9349 6.93836 15.8349 6.43043H15.8389Z" fill="#3A7AF2"/>
</svg>
